
    <svg width="283" height="240" viewBox="0 0 283 240" fill="none" xmlns="http://www.w3.org/2000/svg">
      <path
        d="M234.732 234.732C237.857 237.857 239.42 239.42 241.423 239.467C241.606 239.471 241.813 239.464 241.996 239.447C243.991 239.264 245.374 237.678 248.142 234.504C264.344 215.927 275.45 193.391 280.281 169.105C285.741 141.657 282.939 113.206 272.229 87.3503C261.519 61.4946 243.383 39.3953 220.113 23.8471C196.844 8.29883 169.486 1.27884e-06 141.5 0C113.514 -1.27884e-06 86.1564 8.29883 62.8868 23.847C39.6173 39.3953 21.4809 61.4945 10.771 87.3503C0.0612478 113.206 -2.74093 141.657 2.71888 169.105C7.54963 193.391 18.6563 215.927 34.8583 234.504C37.6257 237.678 39.0094 239.264 41.0043 239.447C41.1868 239.464 41.394 239.471 41.5773 239.467C43.58 239.42 45.1426 237.857 48.268 234.732L62.3075 220.693C65.3391 217.661 66.8549 216.145 67.0312 214.367C67.0493 214.184 67.0564 214.034 67.0556 213.851C67.0475 212.063 65.5779 210.287 62.6388 206.734C51.8574 193.7 44.4408 178.155 41.1214 161.467C37.1724 141.614 39.1991 121.035 46.9454 102.334C54.6917 83.6331 67.8095 67.6489 84.6401 56.4031C101.471 45.1573 121.258 39.1548 141.5 39.1548C161.742 39.1548 181.529 45.1573 198.36 56.4031C215.19 67.6489 228.308 83.6331 236.055 102.334C243.801 121.035 245.828 141.614 241.879 161.467C238.559 178.155 231.143 193.7 220.361 206.734C217.422 210.287 215.953 212.063 215.944 213.851C215.944 214.034 215.951 214.184 215.969 214.367C216.145 216.145 217.661 217.661 220.693 220.693L234.732 234.732Z"
        fill="url(#paint0_linear_10_4)"
      />
      <defs>
        <linearGradient
          id="paint0_linear_10_4"
          x1="289.67"
          y1="203.912"
          x2="-53.3603"
          y2="235.357"
          gradientUnits="userSpaceOnUse"
        >
          <stop offset="0.0408604" stop-color="#dc4eff" />
          <stop offset="0.436563" stop-color="#DD2FCD" />
          <stop offset="1" stop-color="#3827FF" />
        </linearGradient>
      </defs>
    </svg>