<svg width="50" height="33" viewBox="0 0 50 33" fill="none" xmlns="http://www.w3.org/2000/svg">
<path d="M48.7807 13C50.5 21.5 45.1546 33 24.0001 33C2.5 29.5 0 21 0 13C28.4999 14.9999 3.46921 18.5 17 18.5C30.5308 18.5 45.5 4.49999 48.7807 13Z" fill="url(#paint0_linear_16_23)"/>
<path d="M49 15C49 23.2843 38.031 30 24.5 30C10.969 30 0 23.2843 0 15C0 6.71573 10.969 0 24.5 0C38.031 0 49 6.71573 49 15Z" fill="url(#paint1_radial_16_23)"/>
<defs>
<linearGradient id="paint0_linear_16_23" x1="37" y1="39" x2="-6.5" y2="20" gradientUnits="userSpaceOnUse">
<stop stop-color="#110E1E"/>
<stop offset="1" stop-color="#73548B" stop-opacity="0.73"/>
</linearGradient>
<radialGradient id="paint1_radial_16_23" cx="0" cy="0" r="1" gradientUnits="userSpaceOnUse" gradientTransform="translate(17 3.5) rotate(60.9454) scale(20.5913 33.6324)">
<stop stop-color="#955FCB"/>
<stop offset="1" stop-color="#4E2189"/>
</radialGradient>
</defs>
</svg>
